<svg width="320" height="175" viewBox="0 0 320 175" fill="none" xmlns="http://www.w3.org/2000/svg">
<path d="M-68 161H109C122.255 161 133 150.255 133 137V30C133 16.7452 143.745 6 157 6H159C172.255 6 183 16.7452 183 30V137C183 150.255 193.745 161 207 161H393C406.255 161 417 150.255 417 137V30C417 16.7452 427.745 6 441 6H443C456.255 6 467 16.7452 467 30V137C467 150.255 477.745 161 491 161H694C707.255 161 718 150.255 718 137V30C718 16.7452 728.745 6 742 6H744C757.255 6 768 16.7452 768 30V137C768 150.255 778.745 161 792 161H999" stroke="black" stroke-opacity="0.1" stroke-width="12" stroke-linecap="round" stroke-linejoin="round"/>
<path d="M13 149L25 161L13 173" stroke="#484A4A" stroke-width="4" stroke-linecap="round" stroke-linejoin="round"/>
<path d="M-22 161H25" stroke="#484A4A" stroke-width="4" stroke-linecap="round" stroke-linejoin="round"/>
<path d="M121 94L133 82L145 94" stroke="#484A4A" stroke-width="4" stroke-linecap="round" stroke-linejoin="round"/>
<path d="M133 122V82" stroke="#484A4A" stroke-width="4" stroke-linecap="round" stroke-linejoin="round"/>
<path d="M171 86L183 98L195 86" stroke="#484A4A" stroke-width="4" stroke-linecap="round" stroke-linejoin="round"/>
<path d="M183 58V98" stroke="#484A4A" stroke-width="4" stroke-linecap="round" stroke-linejoin="round"/>
<path d="M292 161H339" stroke="#484A4A" stroke-width="4" stroke-linecap="round" stroke-linejoin="round"/>
</svg>
