<svg width="320" height="175" fill="none" xmlns="http://www.w3.org/2000/svg"><path d="M-68 161h177c13.255 0 24-10.745 24-24V30c0-13.255 10.745-24 24-24h2c13.255 0 24 10.745 24 24v107c0 13.255 10.745 24 24 24h186c13.255 0 24-10.745 24-24V30c0-13.255 10.745-24 24-24h2c13.255 0 24 10.745 24 24v107c0 13.255 10.745 24 24 24h203c13.255 0 24-10.745 24-24V30c0-13.255 10.745-24 24-24h2c13.255 0 24 10.745 24 24v107c0 13.255 10.745 24 24 24h207" stroke="#000" stroke-opacity=".1" stroke-width="12" stroke-linecap="round" stroke-linejoin="round"/><path d="M13 149l12 12-12 12m-35-12h47m96-67l12-12 12 12m-12 28V82m38 4l12 12 12-12m-12-28v40m109 63h47" stroke="#484A4A" stroke-width="4" stroke-linecap="round" stroke-linejoin="round"/></svg>