<svg width="320" height="167" fill="none" xmlns="http://www.w3.org/2000/svg"><path d="M-68 161h177c13.255 0 24-10.745 24-24V30c0-13.255 10.745-24 24-24h2c13.255 0 24 10.745 24 24v107c0 13.255 10.745 24 24 24h186c13.255 0 24-10.745 24-24V30c0-13.255 10.745-24 24-24h2c13.255 0 24 10.745 24 24v107c0 13.255 10.745 24 24 24h203c13.255 0 24-10.745 24-24V30c0-13.255 10.745-24 24-24h2c13.255 0 24 10.745 24 24v107c0 13.255 10.745 24 24 24h207" stroke="#000" stroke-opacity=".1" stroke-width="12" stroke-linecap="round" stroke-linejoin="round"/></svg>