<svg width="128" height="128" fill="none" xmlns="http://www.w3.org/2000/svg"><path d="M29.785 14.816c24.594 0 41.483-12.74 53.333-12.74 11.85 0 36.74 6.813 36.74 61.33 0 54.518-33.483 62.518-46.518 62.518-61.038.003-87.11-111.108-43.555-111.108z" fill="#EFEFEF"/><path d="M95.654 12.858l2.515-2.514 5.028 5.029-2.514 2.514-5.029-5.029zm14.455 14.457l2.514-2.514 5.029 5.029-2.515 2.514-5.028-5.029zm-.629-11.941l5.029-5.028 2.514 2.514-5.028 5.028-2.515-2.514z" fill="#A4AFC1"/><path d="M75.556 89.778H24V77.333c0-5.891 4.775-10.666 10.667-10.666h30.222c5.891 0 10.667 4.775 10.667 10.666v12.445zM49.778 54.222c7.364 0 13.333-5.97 13.333-13.333 0-7.364-5.97-13.333-13.333-13.333-7.364 0-13.334 5.97-13.334 13.333 0 7.364 5.97 13.333 13.334 13.333z" fill="#F3F3F1"/><path d="M63.075 40.178c-6.044.924-9.742-5.511-9.742-5.511-6.258 5.83-14.186 5.689-16.853 5.44.391-7.005 6.187-12.551 13.298-12.551 7.11 0 12.942 5.582 13.297 12.622zM83.555 104C94.847 104 104 94.847 104 83.555c0-11.29-9.153-20.444-20.445-20.444-11.29 0-20.444 9.153-20.444 20.444 0 11.292 9.153 20.445 20.444 20.445z" fill="#2FDF84"/><path d="M71.111 83.555c0-9.92 7.069-18.186 16.444-20.046a20.594 20.594 0 00-4-.398c-11.292 0-20.444 9.152-20.444 20.444 0 11.293 9.152 20.445 20.444 20.445 1.37 0 2.706-.139 4-.398-9.376-1.86-16.444-10.127-16.444-20.047z" fill="#00B871"/><path d="M42.667 66.666h-8C28.775 66.666 24 71.442 24 77.334v12.445h8V77.333c0-5.891 4.775-10.666 10.667-10.666zm1.777-25.777c0-5.96 3.936-10.948 9.334-12.654-1.27-.402-2.596-.68-4-.68-7.364 0-13.334 5.97-13.334 13.334s5.97 13.333 13.334 13.333c1.404 0 2.73-.277 4-.679-5.398-1.706-9.334-6.695-9.334-12.654z" fill="#D5DBE1"/><path d="M53.77 28.228c-1.265-.402-2.591-.672-3.992-.672-7.111 0-12.907 5.546-13.298 12.55 1.476.14 4.583.203 8.11-.721.59-5.29 4.25-9.596 9.18-11.157z" fill="#00B871"/><path d="M61.86 42.937c-4.129 0-7.186-2.468-8.985-4.462-6.71 4.757-14.3 4.505-16.644 4.288l.498-5.309c2.066.196 9.251.427 14.787-4.736a2.671 2.671 0 014.132.622c.021.036 2.887 4.804 7.03 4.203l.806 5.27c-.561.085-1.102.124-1.625.124z" fill="#000"/><path d="M49.778 56.889c-8.822 0-16-7.179-16-16s7.178-16 16-16c8.821 0 16 7.179 16 16s-7.179 16-16 16zm0-26.667c-5.881 0-10.667 4.786-10.667 10.667 0 5.88 4.786 10.667 10.667 10.667 5.88 0 10.666-4.786 10.666-10.667S55.66 30.222 49.778 30.222zm33.778 76.445c-12.743 0-23.111-10.368-23.111-23.112 0-12.743 10.367-23.11 23.11-23.11 12.744 0 23.112 10.367 23.112 23.11 0 12.744-10.368 23.112-23.111 23.112zm0-40.89c-9.803 0-17.778 7.976-17.778 17.778 0 9.803 7.975 17.778 17.778 17.778 9.802 0 17.777-7.975 17.777-17.778 0-9.802-7.975-17.777-17.777-17.777z" fill="#000"/><path d="M80 92.444c-.708 0-1.387-.28-1.885-.782l-7.11-7.11 3.772-3.773 5.095 5.095 10.567-12.075 4.014 3.51L82.01 91.53a2.674 2.674 0 01-1.92.91c-.029.003-.06.003-.089.003zm-26.667 0H24a2.668 2.668 0 01-2.667-2.666V77.333C21.333 69.98 27.313 64 34.667 64H56.96v5.333H34.667c-4.413 0-8 3.588-8 8v9.778h26.666v5.333z" fill="#000"/></svg>