<svg width="128" height="128" fill="none" xmlns="http://www.w3.org/2000/svg"><path d="M113.184 98.215c0-24.594 12.74-41.483 12.74-53.333 0-11.851-6.813-36.74-61.33-36.74-54.518 0-62.521 33.483-62.521 46.517 0 61.039 111.111 87.112 111.111 43.556z" fill="#EFEFEF"/><path d="M94.222 46.222a5.34 5.34 0 01-5.333-5.333 5.34 5.34 0 015.333-5.333 5.34 5.34 0 015.334 5.333 5.34 5.34 0 01-5.334 5.333zm0-7.11a1.78 1.78 0 00-1.777 1.777c0 .981.8 1.778 1.777 1.778A1.78 1.78 0 0096 40.889c0-.981-.8-1.778-1.778-1.778z" fill="#A4AFC1"/><path d="M75.556 89.778H24V77.333c0-5.891 4.775-10.666 10.667-10.666h30.222c5.891 0 10.667 4.775 10.667 10.666v12.445zM49.778 54.222c7.364 0 13.333-5.97 13.333-13.333 0-7.364-5.97-13.333-13.333-13.333-7.364 0-13.334 5.97-13.334 13.333 0 7.364 5.97 13.333 13.334 13.333z" fill="#F3F3F1"/><path d="M63.075 40.178c-6.044.924-9.742-5.511-9.742-5.511-6.258 5.83-14.186 5.689-16.853 5.44.391-7.005 6.187-12.551 13.298-12.551 7.11 0 12.942 5.582 13.297 12.622zM83.555 104C94.847 104 104 94.847 104 83.555c0-11.29-9.153-20.444-20.445-20.444-11.29 0-20.444 9.153-20.444 20.444 0 11.292 9.153 20.445 20.444 20.445z" fill="#E8184A"/><path d="M71.111 83.555c0-9.92 7.069-18.186 16.444-20.046a20.594 20.594 0 00-4-.398c-11.292 0-20.444 9.152-20.444 20.444 0 11.293 9.152 20.445 20.444 20.445 1.37 0 2.706-.139 4-.398-9.376-1.86-16.444-10.127-16.444-20.047z" fill="#000" fill-opacity=".2"/><path d="M42.667 66.667h-8C28.775 66.667 24 71.442 24 77.333v12.445h8V77.333c0-5.891 4.775-10.666 10.667-10.666zm1.777-25.778c0-5.96 3.936-10.948 9.334-12.654-1.27-.402-2.596-.68-4-.68-7.364 0-13.334 5.97-13.334 13.334s5.97 13.333 13.334 13.333c1.404 0 2.73-.277 4-.679-5.398-1.706-9.334-6.695-9.334-12.654z" fill="#D5DBE1"/><path d="M53.77 28.228c-1.265-.402-2.591-.672-3.992-.672-7.111 0-12.907 5.546-13.298 12.55 1.476.14 4.583.203 8.11-.721.59-5.29 4.25-9.596 9.18-11.157z" fill="#BA133B"/><path d="M61.86 42.937c-4.129 0-7.186-2.468-8.985-4.462-6.703 4.754-14.28 4.515-16.648 4.288l.502-5.309c2.076.196 9.251.423 14.784-4.736a2.67 2.67 0 014.131.623c.022.035 2.888 4.803 7.03 4.202l.807 5.27c-.558.085-1.099.124-1.622.124z" fill="#000"/><path d="M49.778 56.889c-8.822 0-16-7.179-16-16s7.178-16 16-16c8.821 0 16 7.179 16 16s-7.179 16-16 16zm0-26.667c-5.881 0-10.667 4.786-10.667 10.667 0 5.88 4.786 10.667 10.667 10.667 5.88 0 10.666-4.786 10.666-10.667S55.66 30.222 49.778 30.222zm33.778 76.445c-12.743 0-23.111-10.368-23.111-23.112 0-12.743 10.367-23.11 23.11-23.11 12.744 0 23.112 10.367 23.112 23.11 0 12.744-10.368 23.112-23.111 23.112zm0-40.89c-9.803 0-17.778 7.976-17.778 17.778 0 9.803 7.975 17.778 17.778 17.778 9.802 0 17.777-7.975 17.777-17.778 0-9.802-7.975-17.777-17.777-17.777z" fill="#000"/><path d="M75.43 87.892l12.446-12.445 3.771 3.77-12.445 12.446-3.771-3.771z" fill="#000"/><path d="M75.43 79.22l3.772-3.772 12.445 12.445-3.771 3.772L75.43 79.219zM53.333 92.444H24a2.668 2.668 0 01-2.667-2.666V77.333C21.333 69.98 27.317 64 34.667 64H56.96v5.333H34.667c-4.41 0-8 3.588-8 8v9.778h26.666v5.333z" fill="#000"/></svg>